<svg width="139" height="139" viewBox="0 0 139 139" fill="none" xmlns="http://www.w3.org/2000/svg">
<path d="M69.5 0C107.885 0 139 31.1152 139 69.5C139 107.885 107.885 139 69.5 139C31.1152 139 0 107.885 0 69.5C0 31.1152 31.1152 0 69.5 0ZM69.5 13.9C54.754 13.9 40.6119 19.7578 30.1849 30.1849C19.7578 40.6119 13.9 54.754 13.9 69.5C13.9 84.246 19.7578 98.3881 30.1849 108.815C40.6119 119.242 54.754 125.1 69.5 125.1C84.246 125.1 98.3881 119.242 108.815 108.815C119.242 98.3881 125.1 84.246 125.1 69.5C125.1 54.754 119.242 40.6119 108.815 30.1849C98.3881 19.7578 84.246 13.9 69.5 13.9ZM69.5 27.8C71.2023 27.8002 72.8453 28.4252 74.1174 29.5564C75.3895 30.6875 76.2022 32.2463 76.4013 33.9368L76.45 34.75V66.6227L95.2636 85.4363C96.5101 86.6871 97.2338 88.3653 97.2877 90.1303C97.3416 91.8952 96.7217 93.6145 95.5538 94.9389C94.386 96.2634 92.7578 97.0936 91 97.2611C89.2422 97.4285 87.4865 96.9206 86.0896 95.8405L85.4363 95.2636L64.5863 74.4136C63.5062 73.3326 62.8125 71.9256 62.6125 70.4104L62.55 69.5V34.75C62.55 32.9067 63.2822 31.139 64.5856 29.8356C65.889 28.5322 67.6567 27.8 69.5 27.8Z" fill="#F1A459"/>
</svg>
